<svg data-v-0dd9719b="" version="1.0" xmlns="http://www.w3.org/2000/svg" xmlns:xlink="http://www.w3.org/1999/xlink" width="100%" height="100%" viewBox="0 0 340.000000 250.000000" preserveAspectRatio="xMidYMid meet" color-interpolation-filters="sRGB" style="margin: auto;"> <rect data-v-0dd9719b="" x="0" y="0" width="100%" height="100%" fill="#fff" fill-opacity="1" class="background"></rect> <rect data-v-0dd9719b="" x="0" y="0" width="100%" height="100%" fill="url(#watermark)" fill-opacity="1" class="watermarklayer"></rect> <g data-v-0dd9719b="" fill="#333" class="icon-text-wrapper icon-svg-group iconsvg" transform="translate(79.47000122070312,90.7175064086914)"><g class="iconsvg-imagesvg" transform="translate(60.529998779296875,0)"><g><rect fill="#333" fill-opacity="0" stroke-width="2" x="0" y="0" width="60" height="34.91498201878426" class="image-rect"></rect> <svg x="0" y="0" width="60" height="34.91498201878426" filtersec="colorsb8201192686" class="image-svg-svg primary" style="overflow: visible;"><svg xmlns="http://www.w3.org/2000/svg" viewBox="-0.0008232288528233767 -0.0005438327789306641 166.7100067138672 97.01139068603516"><title>资源 19</title><path d="M104.65 75.14c-.47 9.73-6.41 17.94-15.44 20.76s-19-.13-24-8.33Q48.47 59.55 32.54 31C26.93 20.92 31 8.48 40.88 2.94 51.15-2.84 63.6.06 69.64 10.24 80.49 28.53 91.06 47 101.53 65.49c1.63 2.89 2.11 6.42 3.12 9.65zM115.18 0a20.32 20.32 0 0 1 17.13 10.4c10.63 18.21 21.26 36.43 31.62 54.8a21.12 21.12 0 0 1-7.69 28.71c-10 5.93-22.81 3.21-28.87-6.92-11-18.38-21.83-36.9-32.13-55.69C87.48 17.14 98 .1 115.18 0z" fill="#1d2088"></path><path d="M0 75.33C-.06 63 9.13 53.62 21.25 53.68a21.34 21.34 0 0 1 .06 42.68A20.85 20.85 0 0 1 0 75.33z" fill="#7ecef4"></path></svg></svg> <!----></g></g> <g transform="translate(0,41.914981842041016)"><g data-gra="path-name" fill-rule="" class="tp-name iconsvg-namesvg"><g transform="scale(1)"><g><path d="M35.5-25.91L29.95 0 20.89 0 24.65-17.63 14.98 0 9.43 0 7.59-18.24 3.67 0 0 0 5.51-25.91 15.91-25.91 17.18-11.3 25.01-25.91 35.5-25.91ZM54.23-25.91L57.05 0 47.5 0 46.93-6.49 39.38-6.49 36.48 0 32.52 0 44.56-25.91 54.23-25.91ZM45.7-20.57L40.73-9.47 46.64-9.47 45.7-20.57ZM82.39-25.91L81.7-22.81 75.13-22.81 70.27 0 61.46 0 66.31-22.81 59.82-22.81 60.56-25.91 82.39-25.91ZM97.37-25.91L100.18 0 90.63 0 90.06-6.49 82.51-6.49 79.61 0 75.66 0 87.69-25.91 97.37-25.91ZM88.84-20.57L83.86-9.47 89.78-9.47 88.84-20.57ZM124.67-18.4L117.89-18.4Q118.01-19.02 118.01-20.08L118.01-20.08Q118.01-20.69 117.93-21.28 117.85-21.87 117.65-22.34 117.44-22.81 117.03-23.08 116.63-23.34 115.97-23.34L115.97-23.34Q115.24-23.34 114.63-23.02 114.01-22.69 113.55-22.18 113.08-21.67 112.81-21 112.55-20.32 112.55-19.59L112.55-19.59Q112.55-18.53 113.1-17.96 113.65-17.38 114.55-17.02 115.44-16.65 116.59-16.4 117.73-16.16 118.95-15.83L118.95-15.83Q119.97-15.55 120.99-15.1 122.01-14.65 122.81-13.89 123.6-13.14 124.09-11.94 124.58-10.73 124.58-8.94L124.58-8.94Q124.58-6.37 123.56-4.61 122.54-2.86 120.75-1.75 118.95-0.65 116.48-0.16 114.01 0.33 111.12 0.33L111.12 0.33Q108.18 0.33 106.32-0.06 104.47-0.45 103.41-0.9L103.41-0.9Q102.14-1.43 101.53-2.12L101.53-2.12 102.92-7.71 110.1-7.71Q110.06-7.35 110.02-6.71 109.98-6.08 109.98-5.71L109.98-5.71Q109.98-5.22 110.1-4.69 110.22-4.16 110.49-3.71 110.75-3.26 111.24-2.98 111.73-2.69 112.46-2.69L112.46-2.69Q113.28-2.69 113.91-3.06 114.55-3.43 114.97-3.98 115.4-4.53 115.63-5.2 115.85-5.88 115.85-6.53L115.85-6.53Q115.85-7.43 115.42-8.04 114.99-8.65 114.26-9.08 113.53-9.51 112.57-9.81 111.61-10.12 110.59-10.45L110.59-10.45Q109.61-10.73 108.53-11.14 107.45-11.55 106.55-12.28 105.65-13.02 105.06-14.14 104.47-15.26 104.47-17.02L104.47-17.02Q104.47-19.63 105.79-21.4 107.12-23.18 109.14-24.28 111.16-25.38 113.57-25.85 115.97-26.32 118.14-26.32L118.14-26.32Q120.99-26.32 123.05-25.65 125.11-24.97 126.18-24.08L126.18-24.08 124.67-18.4ZM142.54-26.32L142.54-26.32Q146.05-26.32 148.23-25.42 150.41-24.53 151.68-22.65L151.68-22.65Q152.5-21.38 152.94-19.79 153.39-18.2 153.39-16.12L153.39-16.12Q153.39-14.32 153.07-12.53 152.74-10.73 152.15-9.08 151.56-7.43 150.72-5.98 149.88-4.53 148.86-3.43L148.86-3.43Q146.95-1.35 144.44-0.51 141.93 0.33 138.25 0.33L138.25 0.33Q134.7 0.33 132.54-0.41 130.38-1.14 129.11-2.77L129.11-2.77Q128.22-3.92 127.71-5.67 127.2-7.43 127.2-10.08L127.2-10.08Q127.2-14.61 128.81-18.18 130.42-21.75 133.4-23.83L133.4-23.83Q135.19-25.1 137.4-25.71 139.6-26.32 142.54-26.32ZM137.93-2.53L137.93-2.53Q138.87-2.53 139.7-3.37 140.54-4.2 141.25-5.61 141.97-7.02 142.56-8.81 143.15-10.61 143.56-12.53 143.97-14.45 144.19-16.34 144.42-18.24 144.42-19.79L144.42-19.79Q144.42-21.91 143.99-22.71 143.56-23.5 142.74-23.5L142.74-23.5Q141.8-23.5 140.95-22.69 140.09-21.87 139.34-20.51 138.58-19.14 137.99-17.36 137.4-15.59 136.97-13.71 136.54-11.83 136.32-10 136.09-8.16 136.09-6.61L136.09-6.61Q136.09-4.28 136.6-3.41 137.11-2.53 137.93-2.53ZM181.06-25.91L175.47 0 165.92 0 161.39-18.73 157.39 0 153.72 0 159.23-25.91 168.98-25.91 173.27-6.94 177.31-25.91 181.06-25.91Z" transform="translate(0, 26.31999969482422)"></path></g> <!----> <!----> <!----> <!----> <!----> <!----> <!----></g></g> <!----></g></g><defs v-gra="od"></defs></svg>